name Walk6.mot
datacolumns 19
datarows 22
range 0.84100000 0.86200000
endheader

                time	   L_ground_force_vx	   L_ground_force_vy	   L_ground_force_vz	   L_ground_force_px	   L_ground_force_py	   L_ground_force_pz	   R_ground_force_vx	   R_ground_force_vy	   R_ground_force_vz	   R_ground_force_px	   R_ground_force_py	   R_ground_force_pz	   L_ground_torque_x	   L_ground_torque_y	   L_ground_torque_z	   R_ground_torque_x	   R_ground_torque_y	   R_ground_torque_z	
          0.84100000	          0.00000000	          0.00000000	          0.00000000	          0.00000000	          0.00000000	          0.00000000	          0.00000000	          0.00000000	          0.00000000	          0.00000000	          0.00000000	          0.00000000	          0.00000000	          0.00000000	          0.00000000	          0.00000000	          0.00000000	          0.00000000	
          0.84200000	          0.00000000	          0.00000000	          0.00000000	          0.00000000	          0.00000000	          0.00000000	          0.00000000	          0.00000000	          0.00000000	          0.00000000	          0.00000000	          0.00000000	          0.00000000	          0.00000000	          0.00000000	          0.00000000	          0.00000000	          0.00000000	
          0.84300000	          0.00000000	          0.00000000	          0.00000000	          0.00000000	          0.00000000	          0.00000000	          0.00000000	          0.00000000	          0.00000000	          0.00000000	          0.00000000	          0.00000000	          0.00000000	          0.00000000	          0.00000000	          0.00000000	          0.00000000	          0.00000000	
          0.84400000	          0.00000000	          0.00000000	          0.00000000	          0.00000000	          0.00000000	          0.00000000	          0.00000000	          0.00000000	          0.00000000	          0.00000000	          0.00000000	          0.00000000	          0.00000000	          0.00000000	          0.00000000	          0.00000000	          0.00000000	          0.00000000	
          0.84500000	          0.00000000	          0.00000000	          0.00000000	          0.00000000	          0.00000000	          0.00000000	          0.00000000	          0.00000000	          0.00000000	          0.00000000	          0.00000000	          0.00000000	          0.00000000	          0.00000000	          0.00000000	          0.00000000	          0.00000000	          0.00000000	
          0.84600000	          0.00000000	          0.00000000	          0.00000000	          0.00000000	          0.00000000	          0.00000000	          0.00000000	          0.00000000	          0.00000000	          0.00000000	          0.00000000	          0.00000000	          0.00000000	          0.00000000	          0.00000000	          0.00000000	          0.00000000	          0.00000000	
          0.84700000	          0.00000000	          0.00000000	          0.00000000	          0.00000000	          0.00000000	          0.00000000	          0.00000000	          0.00000000	          0.00000000	          0.00000000	          0.00000000	          0.00000000	          0.00000000	          0.00000000	          0.00000000	          0.00000000	          0.00000000	          0.00000000	
          0.84800000	          0.00000000	          0.00000000	          0.00000000	          0.00000000	          0.00000000	          0.00000000	          0.29434739	         12.25266222	         -1.09854337	         -0.49026284	          0.00000000	          0.03781414	          0.00000000	          0.00000000	          0.00000000	          0.00000000	         -0.21400229	          0.00000000	
          0.84900000	          0.00000000	          0.00000000	          0.00000000	          0.00000000	          0.00000000	          0.00000000	          0.45882031	         28.79086927	         -2.03061699	         -0.51601228	          0.00000000	          0.03200570	          0.00000000	          0.00000000	          0.00000000	          0.00000000	         -0.30167830	          0.00000000	
          0.85000000	          0.00000000	          0.00000000	          0.00000000	          0.00000000	          0.00000000	          0.00000000	          0.40098094	         55.24730851	         -3.30574640	         -0.52799886	          0.00000000	          0.02803572	          0.00000000	          0.00000000	          0.00000000	          0.00000000	         -0.35391833	          0.00000000	
          0.85100000	          0.00000000	          0.00000000	          0.00000000	          0.00000000	          0.00000000	          0.00000000	         -0.13895458	         94.47345003	         -4.92573994	         -0.53418629	          0.00000000	          0.02510739	          0.00000000	          0.00000000	          0.00000000	          0.00000000	         -0.33819294	          0.00000000	
          0.85200000	          0.00000000	          0.00000000	          0.00000000	          0.00000000	          0.00000000	          0.00000000	         -1.26180198	        147.71735729	         -6.81720051	         -0.53723161	          0.00000000	          0.02322785	          0.00000000	          0.00000000	          0.00000000	          0.00000000	         -0.25973873	          0.00000000	
          0.85300000	          0.00000000	          0.00000000	          0.00000000	          0.00000000	          0.00000000	          0.00000000	         -2.78670591	        212.76336981	         -8.86400862	         -0.53855815	          0.00000000	          0.02225864	          0.00000000	          0.00000000	          0.00000000	          0.00000000	         -0.15367469	          0.00000000	
          0.85400000	          0.00000000	          0.00000000	          0.00000000	          0.00000000	          0.00000000	          0.00000000	         -4.36645779	        283.09370634	        -10.98270799	         -0.53901766	          0.00000000	          0.02195216	          0.00000000	          0.00000000	          0.00000000	          0.00000000	         -0.06154349	          0.00000000	
          0.85500000	          0.00000000	          0.00000000	          0.00000000	          0.00000000	          0.00000000	          0.00000000	         -5.73380942	        349.24867513	        -13.17613502	         -0.53908767	          0.00000000	          0.02208646	          0.00000000	          0.00000000	          0.00000000	          0.00000000	         -0.01425711	          0.00000000	
          0.85600000	          0.00000000	          0.00000000	          0.00000000	          0.00000000	          0.00000000	          0.00000000	         -6.85625910	        402.18453144	        -15.52684166	         -0.53900039	          0.00000000	          0.02248250	          0.00000000	          0.00000000	          0.00000000	          0.00000000	         -0.02277042	          0.00000000	
          0.85700000	          0.00000000	          0.00000000	          0.00000000	          0.00000000	          0.00000000	          0.00000000	         -7.89950791	        436.61033562	        -18.13128848	         -0.53884103	          0.00000000	          0.02298587	          0.00000000	          0.00000000	          0.00000000	          0.00000000	         -0.08018925	          0.00000000	
          0.85800000	          0.00000000	          0.00000000	          0.00000000	          0.00000000	          0.00000000	          0.00000000	         -9.06566327	        452.28250338	        -21.01494007	         -0.53861360	          0.00000000	          0.02349494	          0.00000000	          0.00000000	          0.00000000	          0.00000000	         -0.17521673	          0.00000000	
          0.85900000	          0.00000000	          0.00000000	          0.00000000	          0.00000000	          0.00000000	          0.00000000	        -10.44718730	        453.03897123	        -24.10485298	         -0.53828204	          0.00000000	          0.02397108	          0.00000000	          0.00000000	          0.00000000	          0.00000000	         -0.29758516	          0.00000000	
          0.86000000	          0.00000000	          0.00000000	          0.00000000	          0.00000000	          0.00000000	          0.00000000	        -12.02207111	        444.72770041	        -27.28145412	         -0.53781463	          0.00000000	          0.02438161	          0.00000000	          0.00000000	          0.00000000	          0.00000000	         -0.42441690	          0.00000000	
          0.86100000	          0.00000000	          0.00000000	          0.00000000	          0.00000000	          0.00000000	          0.00000000	        -13.78296715	        433.20766892	        -30.41420059	         -0.53723378	          0.00000000	          0.02467059	          0.00000000	          0.00000000	          0.00000000	          0.00000000	         -0.51340763	          0.00000000	
          0.86200000	          0.00000000	          0.00000000	          0.00000000	          0.00000000	          0.00000000	          0.00000000	        -15.83092683	        423.04614320	        -33.33761808	         -0.53661930	          0.00000000	          0.02480635	          0.00000000	          0.00000000	          0.00000000	          0.00000000	         -0.52711103	          0.00000000	
